<?xml version="1.0" standalone="no"?>
<!DOCTYPE svg PUBLIC "-//W3C//DTD SVG 20010904//EN"
 "http://www.w3.org/TR/2001/REC-SVG-20010904/DTD/svg10.dtd">
<svg version="1.0" xmlns="http://www.w3.org/2000/svg"
 width="2048.000000pt" height="2048.000000pt" viewBox="0 0 2048.000000 2048.000000"
 preserveAspectRatio="xMidYMid meet">

<g transform="translate(0.000000,2048.000000) scale(0.100000,-0.100000)"
fill="#000000" stroke="none">
<path d="M0 10240 l0 -10240 10240 0 10240 0 0 10240 0 10240 -10240 0 -10240
0 0 -10240z m4610 1745 l0 -2635 -135 0 -135 0 0 2635 0 2635 135 0 135 0 0
-2635z m1340 2371 l0 -263 -117 -71 c-251 -150 -485 -354 -655 -572 l-28 -35
0 603 0 602 400 0 400 0 0 -264z m1070 129 l0 -135 -65 0 c-108 0 -329 -28
-440 -56 l-25 -6 0 166 0 166 265 0 265 0 0 -135z m1070 0 l0 -135 -400 0
-400 0 0 135 0 135 400 0 400 0 0 -135z m540 0 l0 -136 -132 3 -133 3 -3 133
-3 132 136 0 135 0 0 -135z m1070 0 l0 -135 -265 0 -265 0 0 135 0 135 265 0
265 0 0 -135z m1070 0 l0 -135 -265 0 -265 0 0 135 0 135 265 0 265 0 0 -135z
m1340 0 l0 -135 -397 2 -398 3 -3 133 -3 132 401 0 400 0 0 -135z m810 0 l0
-136 -132 3 -133 3 -3 133 -3 132 136 0 135 0 0 -135z m790 -6 l0 -142 -61 7
c-34 3 -154 6 -265 6 l-204 0 0 135 0 135 265 0 265 0 0 -141z m1340 -304 c0
-249 -4 -445 -9 -445 -5 0 -15 7 -22 16 -38 46 -256 207 -369 274 -74 44 -272
142 -342 170 l-58 22 0 204 0 204 400 0 400 0 0 -445z m810 -2190 l0 -2635
-135 0 -135 0 0 825 0 824 45 110 c233 568 228 1234 -11 1793 l-34 80 0 819 0
819 135 0 135 0 0 -2635z m-8210 1408 c0 -9 -499 -2342 -506 -2365 -5 -17 20
-18 436 -18 416 0 441 -1 436 -17 -3 -10 -19 -91 -37 -180 l-32 -163 -909 0
c-861 0 -909 1 -904 18 3 9 134 622 291 1362 157 740 287 1351 290 1358 3 9
107 12 470 12 256 0 465 -3 465 -7z m3120 -1 c0 -17 290 -2688 295 -2714 l5
-28 -505 0 -505 0 -4 23 c-6 25 -56 609 -56 645 l0 22 -403 0 -404 0 -154
-345 -154 -345 -208 0 c-114 0 -206 3 -204 8 2 4 289 622 638 1375 l634 1367
512 0 c282 0 513 -4 513 -8z m2447 -419 c100 -235 185 -429 190 -430 4 -1 145
178 312 397 167 220 316 413 330 430 l26 31 254 -3 254 -3 -499 -600 c-275
-331 -504 -608 -511 -616 -10 -13 43 -145 302 -755 173 -406 318 -747 321
-757 5 -16 -23 -17 -527 -15 l-533 3 -181 423 c-99 233 -183 424 -186 425 -4
1 -154 -188 -334 -421 -180 -233 -333 -426 -339 -428 -6 -2 -123 -3 -260 -2
l-248 3 502 615 c277 338 505 621 507 627 3 7 -130 331 -296 720 -165 390
-307 725 -316 746 l-15 37 533 0 533 0 181 -427z m-7933 -2567 c165 -184 404
-372 635 -498 l31 -17 0 -271 0 -270 -400 0 -400 0 0 608 0 607 28 -35 c15
-19 62 -75 106 -124z m9766 -601 l0 -455 -400 0 -400 0 2 211 3 211 80 32
c229 93 500 261 660 409 28 25 51 46 53 47 1 0 2 -205 2 -455z m-8430 -139
c101 -18 271 -36 346 -36 l54 0 0 -140 0 -140 -265 0 -265 0 0 171 0 171 23
-5 c12 -3 60 -13 107 -21z m7090 -171 l0 -145 -265 0 -265 0 0 140 0 140 218
3 c119 1 238 3 265 5 l47 2 0 -145z m-5620 -5 l0 -140 -400 0 -400 0 0 140 0
140 400 0 400 0 0 -140z m540 0 l0 -140 -135 0 -135 0 0 140 0 140 135 0 135
0 0 -140z m1070 0 l0 -140 -265 0 -265 0 0 140 0 140 265 0 265 0 0 -140z
m1070 0 l0 -140 -265 0 -265 0 0 140 0 140 265 0 265 0 0 -140z m1340 0 l0
-140 -400 0 -400 0 0 140 0 140 400 0 400 0 0 -140z m810 0 l0 -140 -135 0
-135 0 0 140 0 140 135 0 135 0 0 -140z m-3947 -915 c218 -57 347 -226 348
-457 1 -105 -19 -180 -71 -268 -41 -70 -138 -170 -208 -214 l-44 -28 64 -36
c79 -46 215 -180 255 -252 75 -133 97 -300 59 -435 -40 -137 -148 -267 -282
-337 -127 -66 -161 -73 -339 -72 -147 0 -166 2 -233 26 -155 56 -272 156 -336
290 -134 280 -3 604 316 778 l48 26 -75 52 c-83 58 -150 136 -194 227 -42 87
-55 154 -48 249 18 242 173 416 410 462 86 16 246 11 330 -11z m2957 -21 c234
-70 375 -250 396 -502 15 -182 -47 -373 -192 -587 -71 -106 -137 -179 -446
-497 l-260 -268 424 0 c358 0 427 2 444 15 40 30 44 21 44 -100 l0 -115 -605
0 -605 0 0 97 0 97 278 280 c390 394 515 543 606 726 59 117 80 215 73 334 -3
50 -13 115 -22 143 -85 255 -498 269 -717 24 -43 -48 -68 -99 -68 -142 0 -9
-3 -18 -6 -22 -3 -3 -48 28 -100 69 l-93 75 37 61 c99 164 280 286 477 324 88
17 260 11 335 -12z m2940 0 c234 -70 375 -250 396 -502 15 -182 -47 -373 -192
-587 -71 -106 -137 -179 -446 -497 l-260 -268 424 0 c358 0 427 2 444 15 40
30 44 21 44 -100 l0 -115 -605 0 -605 0 0 97 0 97 278 280 c390 394 515 543
606 726 59 117 80 215 73 334 -3 50 -13 115 -22 143 -85 255 -498 269 -717 24
-43 -48 -68 -99 -68 -142 0 -9 -3 -18 -6 -22 -3 -3 -48 28 -100 69 l-93 75 37
61 c99 164 280 286 477 324 88 17 260 11 335 -12z m-8890 -1019 l0 -1035 -115
0 -115 0 -2 893 -3 893 -207 -61 -206 -62 -26 60 c-14 33 -25 62 -23 63 1 1
119 66 262 142 l260 140 88 1 87 1 0 -1035z"/>
<path d="M9857 12813 c-11 -17 -508 -1125 -514 -1145 -5 -17 14 -18 306 -18
l311 0 0 36 c0 35 -87 1093 -93 1124 -2 10 -5 11 -10 3z"/>
<path d="M8652 8385 c-155 -48 -233 -203 -187 -374 26 -100 102 -178 265 -275
l83 -49 36 19 c62 33 175 153 211 224 28 55 34 79 38 151 4 72 1 93 -18 137
-31 71 -111 146 -180 166 -65 19 -189 20 -248 1z"/>
<path d="M8655 7478 c-72 -39 -177 -142 -223 -220 -137 -231 -36 -498 213
-564 102 -28 259 -13 344 30 45 24 115 95 140 143 48 96 47 232 -3 331 -33 66
-124 163 -200 215 -52 35 -184 98 -205 97 -3 0 -33 -15 -66 -32z"/>
</g>
</svg>
